Patient4_TMGait_0pt6_01_left_42_EMG.mot
version=1
nRows=23
nColumns=33
inDegrees=no
endheader
time	1LAddLong	2LGlutMax	3LGlutMed	4LIliopsoas	5LSemiMemb	6LBicFemLong	7LRecFem	8LVastMed	9LVastLat	10LGasMed	11LTibAnt	12lTibPost	13LPeroneusLong	14LSol	15LExtDigLong	16LFlexDigLong	17RAddLong	18RGlutMax	19RGlutMed	20RIliopsoas	21RSemiMemb	22RBicFemLong	23RRecFem	24RVastMed	25RVastLat	26RGasMed	27RTibAnt	28RTibPost	29RPeroneusLong	30RSol	31RExtDigLong	32RFlexDigLong
51.09	0.013275	0.28229	0.050507	-0.002747	-0.023193	-0.02655	-0.31723	0.010681	0.27618	-0.028076	0.093536	0.002899	0.096283	-0.033112	-0.22766	-0.001526	-0.018158	0.01236	-0.26779	-0.065613	0.014801	-0.20172	-0.19928	0.1059	0.23605	-0.01297	0.06134	-0.000305	-0.67642	-0.31647	-0.001678	-0.008545
51.091	0.010376	0.23285	-0.034943	0.041351	-0.012512	-0.027161	-0.23666	0.001221	0.25696	0.002289	-0.22644	0.00412	0.1474	-0.095825	-0.18158	-0.003357	0.003662	-0.000153	-0.25345	0.084229	-0.003967	-0.24963	-0.082703	0.030212	0.15701	0.001221	0.26566	-0.000916	0.32577	-0.49362	0.001526	0.001984
51.092	-0.013733	0.19623	-0.0914	0.048676	0.012512	-0.030975	-0.093994	0.003815	0.25391	0.041351	-0.14297	0.011292	0.1413	-0.16144	0.11963	-0.00061	0.027313	-0.046692	-0.20721	0.21027	-0.049286	-0.1796	0.19287	-0.061798	0.025177	0.00824	0.27847	0.001373	1.7598	-0.63568	-0.001526	0.003967
51.093	-0.001373	0.17532	-0.061951	0.003815	-0.041199	-0.054626	-0.025635	0.00351	0.24719	0.006409	0.038147	0.00946	0.1503	-0.10864	0.28046	-0.004578	0.03479	0.007935	-0.001068	0.23377	-0.12573	-0.18143	0.40802	0.053864	-0.1207	0.012512	0.16327	-0.001984	0.64453	-0.50186	0.00061	0.003662
51.094	0.007172	0.1503	-0.043793	-0.001984	-0.054932	-0.055237	0.025787	0.007324	0.24811	-0.057983	0.050201	0.008698	0.14908	-0.064545	-0.34882	-0.002899	0.023346	0.090332	-0.35645	0.12253	-0.11887	-0.10269	0.4985	0.11734	-0.17014	0.00351	0.41306	-0.001221	-0.66055	-0.45425	-0.005798	-0.00885
51.095	0.007629	0.15076	-0.040588	0.010681	-0.028992	-0.051422	0.025177	0.003815	0.25681	-0.078735	-0.003204	0.003662	0.1712	-0.11795	-0.31586	0.005035	0.008392	0.080109	-0.30212	0.12222	-0.11246	-0.014648	0.43411	-0.058899	-0.19852	0.000763	0.33325	-0.007477	-0.037231	-0.30228	-0.003052	-0.003357
51.096	0.016174	0.1152	-0.060883	0.007172	-0.008392	-0.056458	0.057983	0.005646	0.24948	-0.040131	0.084381	0.010071	0.048828	-0.15778	-0.2066	-0.00946	0.013428	0.077515	-0.40237	0.10422	0.026245	0.023041	-0.017853	-0.12085	-0.24155	0.005035	0.17075	-0.003815	-0.34546	-0.34119	-0.000458	0.003967
51.097	0.024872	0.11353	-0.068207	0.008698	0.080872	-0.013885	0.027771	0.001526	0.26077	-0.017242	0.12817	0.013733	-0.002136	-0.10742	-0.088043	0.007172	0.025635	0.081329	-0.80231	0.19699	0.04303	0.10101	-0.48614	-0.17059	-0.32318	0.015411	-0.076294	-0.000763	-0.39764	-0.3952	-0.001831	-0.001373
51.098	0.033417	0.080872	-0.06073	0.001526	0.050354	-0.02594	0.011292	0.011597	0.25024	-0.0177	0.004425	0.004425	0.055237	-0.091248	0.022278	0.000763	0.021667	0.069427	-0.62698	0.15701	0.00061	0.40878	-0.94086	-0.18372	-0.11932	0.014954	0.41229	-0.001373	-0.68726	-0.34225	-0.003357	-0.009918
51.099	0.038605	0.014648	-0.076141	0.007629	0.018158	-0.032196	0.050507	0.008087	0.24063	-0.045929	-0.04715	0.005188	0.12238	-0.005493	0.19791	0.000305	0.005798	-0.006714	-0.4245	0.000153	-0.035706	0.29144	-0.905	-0.11353	0.21729	-0.003662	0.86655	-0.004272	-0.93567	-0.1442	-0.002441	-0.016632
51.1	0.041809	0.005646	-0.081787	0.002594	-0.005341	-0.020447	0.081177	0.002289	0.24017	-0.040894	-0.16586	0.009613	0.13763	0.05188	0.33249	0.006104	-0.005493	-0.005035	-0.56107	-0.061798	-0.046539	0.15305	-0.29022	-0.008545	0.23071	-0.013275	0.61295	-0.007477	0.33066	0.027924	-0.002136	-0.013275
51.101	0.034485	0.001373	-0.084076	0.007477	-0.080261	-0.02533	0.083008	0.005646	0.23361	-0.024109	-0.069427	0.007019	0.054626	0.10498	0.46417	0.004272	-0.011597	-0.010223	-0.59586	-0.088959	-0.025482	0.14938	-0.089111	0.17883	0.16342	-0.016022	0.14786	-0.002899	-0.76263	0.1944	-0.004272	-0.009766
51.102	0.039063	-0.063629	-0.076599	0.001831	-0.005035	-0.031281	0.11826	0.005035	0.22125	0.047913	-0.029449	0.00885	0.025635	0.15808	0.41428	0.006714	0.014954	0.003357	-0.25238	-0.083771	-0.043182	0.14191	0.041656	0.084839	0.011749	-0.004578	-0.48477	-0.005951	-0.40787	0.20187	-0.007019	-0.003204
51.103	0.019226	-0.08606	-0.088196	-0.001831	0.041809	-0.028381	0.11322	0.007935	0.22079	0.074158	-0.023346	0.00351	0.04776	0.10132	0.30243	0.004272	0.016327	0.017395	0.24384	-0.09964	-0.056915	0.15427	0.031891	0.031586	-0.050201	0.012817	-0.9404	-0.001068	0.93506	0.21927	0.000458	0.001984
51.104	0.024872	-0.08606	-0.084534	0.010529	0.014954	-0.028534	0.12772	0.011139	0.20676	0.11917	-0.026245	0.010986	0.009155	0.021515	0.15625	-0.006714	0.003815	0.052338	0.91126	-0.14267	-0.039673	0.079651	-0.068054	-0.007782	-0.041504	0.003052	-0.91126	-0.000458	0.35858	0.32837	-0.00061	0.003967
51.105	0.007629	-0.024261	-0.079803	0.01358	0.03479	-0.024414	0.13611	0.013885	0.20325	0.12833	0.00885	0.01358	0.003052	-0.044098	0.06073	-0.002136	0.010223	0.21011	2.3047	-0.25726	-0.049591	-0.004578	-0.003357	-0.071716	-0.015259	-0.006561	-0.38147	-0.002136	-0.25116	0.34805	-0.003052	0.001831
51.106	0.003662	-0.050659	-0.080719	-0.007477	0.036926	-0.050049	0.14603	0.002747	0.20218	0.021667	0.041351	0.006409	0.022736	-0.060272	0.00473	-0.003357	0.002747	0.089874	1.5668	-0.11673	-0.041504	-0.096436	0.001984	-0.054626	0.065613	-0.009766	-0.035553	-0.00824	0.88348	0.29785	-0.002289	0.002899
51.107	0.006256	-0.044403	-0.079803	-0.00061	0.029907	-0.030975	0.13519	0.014496	0.20264	-0.022125	0.075684	0.015259	0.10162	0.000763	-0.016632	-0.000153	0.000916	-0.010834	-0.50613	-0.088348	-0.024719	-0.29129	-0.019684	-0.061951	-0.007629	-0.007629	-0.015259	-0.00412	0.93033	0.12741	-0.001984	0.002289
51.108	-0.002136	-0.042572	-0.081024	0.008087	0.007629	-0.033417	0.15243	0.014343	0.19806	0.031281	0.11337	0.011444	0.067444	-0.000916	-0.026703	0.008392	0.001984	-0.052032	-1.0358	-0.065002	-0.024567	-0.25635	0.26581	-0.040131	-0.074768	0.005035	-0.098114	-0.002747	0.7489	0.13947	-0.007935	0.003967
51.109	0.005951	-0.037994	-0.077362	0.00473	-0.019226	-0.012817	0.14923	0.016785	0.18631	-0.068665	0.10269	0.010223	0.024109	-0.03418	0.024261	0.004425	0.005035	-0.088959	0.27222	-0.066681	-0.031738	-0.17197	0.48996	0.029144	-0.051575	0.005798	0.077362	-0.001678	-1.1159	0.024109	-0.001678	0.005951
51.11	-0.004425	-0.000916	-0.10925	0.008698	-0.026398	-0.015106	0.15396	0.011292	0.17044	-0.099945	0.049286	0.005798	0.00824	-0.021667	-0.12512	0.000763	-0.006104	-0.069885	0.82962	-0.15427	-0.068054	-0.11002	0.35233	0.052643	0.003052	0.00351	0.13168	-0.002289	-1.3982	-0.021362	-0.002136	-0.001526
51.111	0.002747	0.017242	-0.11169	0.002289	-0.001526	-0.016937	0.14511	0.009613	0.17303	0.014343	0.030365	0.015564	0.036926	0.018921	0.33234	0.009918	-0.018768	0.014038	0.64911	-0.073395	-0.14893	-0.14069	-0.1445	0.027008	0.017395	0.003204	-0.066223	-0.007324	0.86243	0.036774	-0.001221	-0.001831
51.112	-0.053558	0.032196	-0.112	-0.000458	0.024872	-0.007019	0.13458	0.006561	0.15671	0.073853	-0.021973	0.016022	0.12817	0.062866	0.22858	-0.002899	0.005646	-0.019684	-0.27206	-0.041504	-0.19745	-0.14038	-0.2536	-0.061035	-0.09964	-0.001221	0.010986	-0.002136	-0.66101	-0.036926	-0.009766	-0.009155
